# xmcd
#
# Track frame offsets:
#	150
#	16478
#	41872
#	55211
#	77591
#	90697
#	105410
#	124051
#	142733
#	159691
#	173722
#	211623
#	230692
#	246474
#	265752
#	284056
#	301938
#	318536
#
# Disc length: 4553 seconds
#
# Revision: 1
# Processed by: cddbd v1.5.2PL0 Copyright (c) Steve Scherf et al.
# Submitted via: EZCDAudioConverter 3.0.3.2
#
DISCID=f811c712
DTITLE=Ivete Sangalo - Multishow ao Vivo - Ivete Sangalo 20 Anos
DYEAR=2013
DGENRE=Sertanejo
TTITLE0=Tempo de Alegria
TTITLE1=Acelera Aê (Noite do Bem) - Festa - Sorte Grande
TTITLE2=Vejo o Sol e a Lua
TTITLE3=Dançando
TTITLE4=Obediente
TTITLE5=Pra Frente
TTITLE6=Pra Você - Part. Esp. Bell Marques
TTITLE7=Amor Que Não Sai
TTITLE8=Could You Be Loved - Part. Esp. Alexandre Carlo
TTITLE9=Adeus Bye Bye
TTITLE10=Beleza Rara - Tum, Tum, Goiaba - Pra Sempre Ter Você - Fã - Miragem /
TTITLE10=Eva (Eva)
TTITLE11=Me Engana Que Eu Gosto Part. Esp. Alexandre Pires
TTITLE12=Beijo de Hortelã
TTITLE13=Só Num Sonho
TTITLE14=Cruisin' - Part. Esp. Saulo
TTITLE15=Real Fantasia
TTITLE16=Empurra, Empurra - Arerê
TTITLE17=Careless Whisper
EXTD=
EXTT0=
EXTT1=
EXTT2=
EXTT3=
EXTT4=
EXTT5=
EXTT6=
EXTT7=
EXTT8=
EXTT9=
EXTT10=
EXTT11=
EXTT12=
EXTT13=
EXTT14=
EXTT15=
EXTT16=
EXTT17=
PLAYORDER=
